<svg width="26" height="14" viewBox="0 0 26 14" fill="none" xmlns="http://www.w3.org/2000/svg">
<path d="M2.19373 13.2359C2.93204 13.2359 3.47058 12.6733 3.47058 11.9462C3.47058 11.2192 2.93204 10.6565 2.19373 10.6565C1.4641 10.6565 0.91687 11.2192 0.91687 11.9462C0.91687 12.6733 1.4641 13.2359 2.19373 13.2359ZM5.7029 9.84291C5.7029 11.9895 7.2577 13.3917 9.52477 13.3917C11.9395 13.3917 13.3988 11.9462 13.3988 9.4361V0.598724H11.4531V9.42744C11.4531 10.821 10.7495 11.5654 9.50739 11.5654C8.39557 11.5654 7.63989 10.8729 7.61383 9.84291H5.7029ZM15.9438 9.73039C16.0827 11.9635 17.9503 13.3917 20.7298 13.3917C23.7004 13.3917 25.5592 11.8943 25.5592 9.50534C25.5592 7.62707 24.4995 6.5884 21.9285 5.99117L20.5474 5.65359C18.9144 5.27275 18.2543 4.76207 18.2543 3.87054C18.2543 2.74531 19.2792 2.00958 20.8167 2.00958C22.2759 2.00958 23.2835 2.728 23.4659 3.8792H25.3595C25.2465 1.77588 23.3877 0.295776 20.8427 0.295776C18.1066 0.295776 16.2825 1.77588 16.2825 4.00037C16.2825 5.83536 17.3162 6.92597 19.5832 7.45396L21.1988 7.84347C22.8579 8.23297 23.5875 8.80424 23.5875 9.75636C23.5875 10.8643 22.4409 11.6692 20.8775 11.6692C19.201 11.6692 18.0371 10.9162 17.8721 9.73039H15.9438Z" fill="white"/>
</svg>
