<svg width="163" height="112" viewBox="0 0 163 112" fill="none" xmlns="http://www.w3.org/2000/svg">
<path d="M60.9922 78.4093C60.2766 78.2805 59.9961 78.2317 59.7157 78.1797C50.6508 76.4939 44.9205 71.0086 42.2051 62.3852C40.5124 57.0102 43.5882 53.0519 49.2258 52.7911C53.842 52.5773 57.0016 55.2306 59.7957 58.3178C63.3974 62.2983 66.699 66.5484 70.2367 70.5885C75.33 76.4045 81.3312 80.1496 89.5422 78.9937C96.9049 77.957 103.321 75.0024 108.904 70.1394C109.743 69.4085 110.664 68.7715 111.548 68.0907C111.362 67.8719 111.177 67.653 110.991 67.4341C106.304 68.8895 101.524 69.3787 96.6403 69.1331C89.2503 68.7614 82.2086 67.2184 75.908 63.1611C70.1587 59.4585 65.9187 54.4972 63.903 47.8704C62.2751 42.517 65.6072 38.7718 71.1547 39.5459C73.348 39.8517 75.1942 40.8395 76.8514 42.2403C78.2009 43.3798 79.4951 44.5878 80.8712 45.693C87.3464 50.8961 96.3942 51.1854 104.613 45.5363C91.101 45.4747 81.9079 38.0422 73.8334 28.6227C70.6732 24.9359 67.5879 21.1832 64.3624 17.5548C58.1214 10.5334 51.1977 4.34758 41.7172 2.23742C29.6069 -0.458333 17.9154 1.30352 6.69338 6.44314C4.4557 7.46777 2.30684 8.65925 0 10.5791C1.142 10.5791 1.76502 10.593 2.38678 10.5772C8.04474 10.4313 12.2847 12.9456 15.3427 17.5738C17.5684 20.9421 18.6171 24.7513 19.4165 28.6702C20.6029 34.4862 19.9888 40.4157 20.674 46.2583C22.4352 61.2787 30.112 71.7604 44.406 77.1278C49.6477 79.0964 55.024 79.7518 60.9922 78.4093ZM24.8676 9.89134C22.609 10.4611 20.804 9.54938 18.9438 7.66698C22.1294 6.8733 24.9387 6.56559 27.9574 6.44695C27.7106 8.40675 26.5546 9.46627 24.8676 9.89134ZM98.8806 97.6038C98.6839 96.1579 97.4486 95.5209 96.4773 94.7647C92.1808 91.4205 87.156 90.2366 81.8286 90.1383C78.6494 90.0799 75.5032 89.8426 72.5048 88.7279C71.1306 88.2172 69.5934 87.5612 69.6283 85.7854C69.6632 83.9836 71.2309 83.4741 72.6577 83.0478C73.8257 82.6988 75.0312 82.4761 76.361 82.1652C72.9832 80.0005 69.6835 79.7004 65.2868 81.4686C58.3656 84.2513 51.5422 83.9214 44.6426 81.4299C40.7471 80.024 37.2901 77.8168 33.6909 75.862L33.5925 75.9299C33.6395 75.8976 33.6889 75.8633 33.6858 75.8652C33.597 75.5937 33.4358 75.5867 33.229 75.7383C33.3235 75.8208 33.4174 75.9033 33.5113 75.9858C36.4964 80.878 40.5289 84.814 45.0842 88.1779C53.8573 94.6555 63.4399 98.5187 74.6524 96.8044C78.2738 96.2505 81.9225 95.821 85.575 95.5266C90.1544 95.1567 94.5175 96.4453 98.8806 97.6038ZM77.7415 27.4223C77.4992 27.2465 77.2663 26.8056 76.7715 27.2618C80.8053 32.718 85.9874 36.7404 92.2271 39.2724C102.298 43.3589 112.519 44.058 122.972 40.4519C131.088 37.6527 136.924 40.3878 139.955 48.2676C140.393 39.1214 135.013 32.4572 126.442 31.1509C121.62 30.4162 117.168 32.0157 112.652 33.3258C100.083 36.97 88.4027 35.1707 77.7415 27.4223ZM140.385 63.0958C142.023 63.2334 143.66 63.3819 145.297 63.5253C141.597 60.275 137.087 60.0175 132.525 60.2769C125.578 60.6716 120.573 64.6781 116.01 69.465C111.989 73.684 108.357 78.4169 102.357 80.1122C102.457 80.2924 102.483 80.3825 102.511 80.3825C103.318 80.3945 104.127 80.4326 104.932 80.3958C113.646 80.0012 121.855 78.1632 128.385 71.839C130.442 69.8475 132.282 67.6352 134.267 65.5682C135.923 63.8444 137.931 62.8889 140.385 63.0958ZM120.141 52.2963C113.638 52.8647 107.989 55.5548 102.683 59.102C98.5995 61.832 94.232 63.1237 89.3239 62.2697C88.4604 62.1194 87.5906 62.0071 86.724 61.877C86.7138 61.9982 86.7043 62.1187 86.6942 62.2399C87.0063 62.4004 87.3077 62.5882 87.6325 62.717C88.4503 63.0406 89.256 63.4301 90.1049 63.6319C99.5493 65.8772 108.59 64.7269 116.741 59.4617C121.879 56.1429 127.198 55.5142 132.962 56.3713C133.545 56.4582 134.125 56.5642 134.709 56.6187C135.251 56.6701 135.817 57.2088 136.549 56.6257C131.509 52.9853 126.081 51.7773 120.141 52.2963ZM96.8992 30.2221C100.311 30.3401 103.707 29.8934 107.275 27.7738C106.23 27.8664 105.786 27.8645 105.361 27.9495C100.446 28.9291 96.0332 27.8569 92.1028 24.7494C90.6607 23.6086 89.1945 22.4984 87.734 21.3811C81.9441 16.9527 75.3046 15.4713 68.0422 15.5969C68.1595 15.9541 68.1665 16.199 68.2928 16.3259C76.1948 24.3186 85.3403 29.8237 96.8992 30.2221ZM154.089 71.2312C149.199 66.3809 142.636 65.756 136.563 69.989C140.583 70.1698 143.601 71.452 146.048 73.986C146.914 74.8825 147.811 75.7624 148.78 76.5441C152.48 79.5285 158.753 79.6719 162.418 76.9032C158.113 75.2232 158.113 75.2232 154.089 71.2312ZM105.385 108.375C101.087 100.375 93.864 98.57 85.5198 99.1068C87.9865 99.7907 90.2902 100.843 92.4042 102.319C94.3462 103.675 95.9805 105.354 97.5914 107.073C100.783 110.479 105.765 112.57 109.066 111.863C107.55 110.907 106.204 109.899 105.385 108.375ZM145.374 63.6902C145.376 63.6395 145.377 63.5881 145.38 63.5348C145.38 63.5342 145.374 63.5411 145.367 63.5481L145.381 63.5329C145.354 63.5304 145.325 63.5278 145.297 63.5253C145.314 63.5405 145.331 63.5526 145.348 63.5678C145.357 63.6084 145.366 63.6496 145.374 63.6902ZM99.1191 97.7922C99.0626 97.7599 99.0062 97.7281 98.9497 97.6964C98.9573 97.7326 98.9662 97.7681 98.9852 97.7973C98.9967 97.8163 99.0728 97.7948 99.1191 97.7922ZM98.9497 97.6964C98.9446 97.6704 98.9402 97.6438 98.9332 97.6177C98.9332 97.6177 98.9237 97.6298 98.9135 97.6419L98.9332 97.6184C98.9161 97.6133 98.8983 97.6089 98.8806 97.6038C98.8837 97.6254 98.8913 97.6431 98.8939 97.6653C98.9129 97.6755 98.9313 97.6863 98.9497 97.6964Z" fill="white"/>
</svg>
